<?xml version="1.0" encoding="UTF-8" standalone="no"?>
<svg
   viewBox="0 0 326.67 115"
   width="230"
   class="uk-svg"
   version="1.1"
   id="svg117"
   sodipodi:docname="logo.svg"
   height="115"
   inkscape:version="1.2.2 (b0a8486541, 2022-12-01)"
   xmlns:inkscape="http://www.inkscape.org/namespaces/inkscape"
   xmlns:sodipodi="http://sodipodi.sourceforge.net/DTD/sodipodi-0.dtd"
   xmlns="http://www.w3.org/2000/svg"
   xmlns:svg="http://www.w3.org/2000/svg">
  <defs
     id="defs4">
    <style
       id="style2">.cls-1{fill:#d8ec29;}.cls-2{fill:currentColor;}</style>
  </defs>
  <g
     id="Ebene_1-2">
    <path
       class="cls-2"
       d="m 0,65.82 v -1.68 c 0,-19.44 13.56,-30.6 30.84,-30.6 17.28,0 27,9.84 29.52,23.04 L 45.72,59.7 C 44.76,52.5 40.32,46.98 31.2,46.98 c -9.12,0 -16.08,6.12 -16.08,17.4 v 1.2 c 0,11.28 6.96,17.4 16.08,17.4 9.12,0 13.56,-5.16 14.88,-12.84 l 14.64,3.48 C 57.6,86.46 47.88,96.42 30.84,96.42 13.8,96.42 0,85.26 0,65.82 Z"
       id="path6" />
    <path
       class="cls-2"
       d="m 65.52,65.94 v -1.92 c 0,-19.2 13.44,-30.48 31.2,-30.48 17.76,0 31.2,11.28 31.2,30.48 v 1.92 c 0,19.2 -13.44,30.48 -31.2,30.48 -17.76,0 -31.2,-11.28 -31.2,-30.48 z m 47.28,-0.36 v -1.2 c 0,-11.16 -6.72,-17.4 -16.08,-17.4 -9.36,0 -16.08,6.24 -16.08,17.4 v 1.2 c 0,11.16 6.84,17.4 16.08,17.4 9.24,0 16.08,-6.24 16.08,-17.4 z"
       id="path8" />
    <path
       class="cls-2"
       d="m 133.2,77.34 c 0,-12.24 9.6,-18.6 23.04,-18.6 h 16.32 v -3.36 c 0,-5.52 -3.36,-9.6 -11.04,-9.6 -7.68,0 -10.92,3.84 -12,9.24 L 135.6,50.34 c 2.88,-9 10.68,-16.8 26.16,-16.8 15.48,0 25.44,8.04 25.44,22.92 v 22.2 c 0,2.4 1.2,3.6 3.36,3.6 h 4.8 v 12.48 h -10.08 c -5.88,0 -10.2,-3.12 -10.2,-7.92 V 86.7 h -2.28 c -1.08,3 -4.8,9.72 -17.28,9.72 -12.48,0 -22.32,-6.84 -22.32,-19.08 z m 39.36,-6.12 v -1.2 h -15.24 c -5.64,0 -9,2.52 -9,6.84 0,4.32 3.36,7.32 9.84,7.32 8.4,0 14.4,-5.04 14.4,-12.96 z"
       id="path10" />
    <path
       class="cls-2"
       d="m 198.76,76.98 13.92,-3.6 c 1.56,8.4 7.2,11.04 14.16,11.04 6.96,0 10.32,-2.76 10.32,-6.48 0,-3.72 -3,-5.4 -10.08,-6.72 l -3.36,-0.6 c -12.48,-2.28 -22.8,-6.96 -22.8,-18.72 0,-11.76 9.36,-18.36 23.52,-18.36 13.32,0 22.44,6.48 25.2,16.08 l -14.04,4.32 c -1.32,-6.12 -5.4,-8.4 -11.16,-8.4 -5.76,0 -8.88,2.16 -8.88,5.64 0,3.84 3.36,5.4 8.88,6.36 l 3.36,0.6 c 13.44,2.4 24,6.24 24,18.72 0,12.48 -9.84,19.56 -24.96,19.56 -15.12,0 -26.04,-6.96 -28.08,-19.44 z"
       id="path12" />
    <path
       class="cls-2"
       d="m 281.8,94.74 c -7.92,0 -13.2,-5.28 -13.2,-13.44 V 47.7 H 253.72 V 35.22 H 268.6 V 17.74 h 15.12 v 17.48 h 16.32 V 47.7 h -16.32 v 30.96 c 0,2.4 1.2,3.6 3.36,3.6 h 11.52 v 12.48 z"
       id="path14" />
    <polygon
       class="cls-1"
       points="326.67,0 324.54,0 306.28,8.77 306.28,17.61 324.54,26.38 326.67,26.38 326.67,17.36 316.71,13.19 326.67,9.02 "
       id="polygon112" />
    <path
       class="cls-1"
       d="M 308.85,94.74 V 35.22 h 15.12 v 47.27 c 0,6.77 -5.48,12.25 -12.25,12.25 z"
       id="path114" />
    <text
       xml:space="preserve"
       style="font-size:53.0247px;line-height:1.25;font-family:Lato;-inkscape-font-specification:'Lato, Normal';letter-spacing:14.203px;word-spacing:0px;stroke-width:1.4203"
       x="48.938213"
       y="135.76636"
       id="text456"><tspan
         sodipodi:role="line"
         id="tspan454"
         style="stroke-width:1.4203"
         x="48.938213"
         y="135.76636" /></text>
  </g>
</svg>
